<svg width="320px" height="421px" version="1.1" xmlns="http://www.w3.org/2000/svg" xmlns:xlink="http://www.w3.org/1999/xlink" overflow="visible" id="x9irzmu">
   <desc>Engraved by Verovio 6.0.1[undefined]</desc>
   <defs>
      <g id="E050-x9irzmu">
         <path stroke="#000000" transform="scale(1,-1)" d="M441 -245c-23 -4 -48 -6 -76 -6c-59 0 -102 7 -130 20c-88 42 -150 93 -187 154c-26 44 -43 103 -48 176c0 6 -1 13 -1 19c0 54 15 111 45 170c29 57 65 106 110 148s96 85 153 127c-3 16 -8 46 -13 92c-4 43 -5 73 -5 89c0 117 16 172 69 257c34 54 64 82 89 82 c21 0 43 -30 69 -92s39 -115 41 -159v-15c0 -109 -21 -162 -67 -241c-13 -20 -63 -90 -98 -118c-13 -9 -25 -19 -37 -29l31 -181c8 1 18 2 28 2c58 0 102 -12 133 -35c59 -43 92 -104 98 -184c1 -7 1 -15 1 -22c0 -123 -87 -209 -181 -248c8 -57 17 -110 25 -162 c5 -31 6 -58 6 -80c0 -30 -5 -53 -14 -70c-35 -64 -88 -99 -158 -103c-5 0 -11 -1 -16 -1c-37 0 -72 10 -108 27c-50 24 -77 59 -80 105v11c0 29 7 55 20 76c18 28 45 42 79 44h6c49 0 93 -42 97 -87v-9c0 -51 -34 -86 -105 -106c17 -24 51 -36 102 -36c62 0 116 43 140 85 c9 16 13 41 13 74c0 20 -1 42 -5 67c-8 53 -18 106 -26 159zM461 939c-95 0 -135 -175 -135 -286c0 -24 2 -48 5 -71c50 39 92 82 127 128c40 53 60 100 60 140v8c-4 53 -22 81 -55 81h-2zM406 119l54 -326c73 25 110 78 110 161c0 7 0 15 -1 23c-7 95 -57 142 -151 142h-12 zM382 117c-72 -2 -128 -47 -128 -120v-7c2 -46 43 -99 75 -115c-3 -2 -7 -5 -10 -10c-70 33 -116 88 -123 172v11c0 68 44 126 88 159c23 17 49 29 78 36l-29 170c-21 -13 -52 -37 -92 -73c-50 -44 -86 -84 -109 -119c-45 -69 -67 -130 -67 -182v-13c5 -68 35 -127 93 -176 s125 -73 203 -73c25 0 50 3 75 9c-19 111 -36 221 -54 331z" />
      </g>
      <g id="E084-x9irzmu">
         <path stroke="#000000" transform="scale(1,-1)" d="M20 -78c84 97 114 180 134 329h170c-13 -32 -82 -132 -99 -151l-84 -97c-33 -36 -59 -63 -80 -81h162v102l127 123v-225h57v-39h-57v-34c0 -43 19 -65 57 -65v-34h-244v36c48 0 60 26 60 70v27h-203v39z" />
      </g>
      <g id="E0A4-x9irzmu">
         <path stroke="#000000" transform="scale(1,-1)" d="M0 -39c0 68 73 172 200 172c66 0 114 -37 114 -95c0 -84 -106 -171 -218 -171c-64 0 -96 30 -96 94z" />
      </g>
      <g id="E242-x9irzmu">
         <path stroke="#000000" transform="scale(1,-1)" d="M206 -748c32 48 49 100 49 149c0 89 -55 168 -168 203c-18 5 -47 9 -87 16v190v190h22c8 0 33 -61 71 -95c4 -3 -2 3 61 -56c62 -58 122 -137 122 -241c0 -32 -7 -65 -17 -96c11 -29 17 -60 17 -94c0 -71 -32 -148 -67 -190c-6 -5 -10 -7 -13 -7s-5 2 -5 5l4 10 c1 3 6 8 11 16zM248 -463c4 18 7 38 7 57c0 105 -80 173 -168 200c-11 3 -27 6 -47 9c9 -17 23 -61 53 -88c4 -3 -2 3 61 -56c36 -33 71 -74 94 -122z" />
      </g>
      <g id="E062-x9irzmu">
         <path stroke="#000000" transform="scale(1,-1)" d="M582 -120c0 32 26 58 58 58s58 -26 58 -58s-26 -58 -58 -58s-58 26 -58 58zM582 120c0 32 26 58 58 58s58 -26 58 -58s-26 -58 -58 -58s-58 26 -58 58zM158 96c51 0 73 -14 88 -49l16 -39c0 -17 -2 -30 -7 -40c-3 -11 -10 -21 -19 -31c-17 -18 -49 -43 -84 -43 c-55 0 -77 13 -112 44c-24 21 -35 55 -35 100c0 46 14 81 32 112c30 52 71 79 137 93l36 6l26 2c154 0 235 -68 274 -182c11 -32 18 -68 18 -107c0 -103 -26 -182 -68 -250c-89 -145 -234 -230 -412 -288l-30 -5c-9 0 -14 3 -14 8c3 10 5 11 10 16c35 15 70 30 96 44l78 43 c96 57 162 136 197 258c9 33 17 60 22 100c3 22 5 35 6 39c-7 69 -16 115 -23 140s-4 22 -16 40c-8 12 -19 23 -31 34c-24 21 -62 44 -118 44c-48 0 -84 -8 -113 -28c-28 -19 -42 -44 -42 -73v-16c2 -5 3 -9 4 -11c24 22 52 39 84 39z" />
      </g>
      <g id="E0A3-x9irzmu">
         <path stroke="#000000" transform="scale(1,-1)" d="M278 64c0 22 -17 39 -43 39c-12 0 -26 -3 -41 -10c-85 -43 -165 -94 -165 -156c5 -25 15 -32 49 -32c67 11 200 95 200 159zM0 -36c0 68 73 174 200 174c66 0 114 -39 114 -97c0 -84 -106 -173 -218 -173c-64 0 -96 32 -96 96z" />
      </g>
      <g id="E52D-x9irzmu">
         <path stroke="#000000" transform="scale(1,-1)" d="M311 -69c21 0 35 -31 35 -51s-13 -32 -21 -45c-5 -7 -8 -12 -11 -14c-6 -7 -1 -10 9 -11c35 0 54 55 67 89c7 18 12 35 15 52c21 88 39 179 58 269h-58v38h70c13 38 23 65 40 91c21 30 42 53 65 69s48 24 75 24c28 0 46 -14 51 -38l4 -16c0 -33 -1 -36 -13 -60 c-3 -7 -17 -25 -31 -27c-5 -1 -10 -1 -17 0c-13 3 -17 18 -19 31c0 27 11 44 29 56l14 10c0 9 -6 14 -18 16h-6c-11 0 -20 -2 -28 -8c-9 -7 -19 -21 -29 -43c-7 -18 -26 -84 -31 -103h77v-40h-85c-19 -109 -60 -255 -103 -337c-24 -46 -64 -106 -117 -106 c-45 0 -71 37 -71 83c0 32 15 71 49 71zM337 262c21 0 43 -14 43 -35v-7l-63 -183c0 -13 4 -20 12 -21c8 0 17 5 26 15s15 16 16 17c4 7 19 32 20 35l14 41h23l-24 -63c-8 -22 -31 -45 -44 -58s-29 -20 -46 -21c-18 0 -34 5 -49 14l-16 15c-3 7 -5 12 -5 17 c20 63 44 124 65 186c0 7 -5 12 -15 13c-16 0 -31 -15 -44 -45l-64 -182h-71l77 214c0 9 -6 13 -17 13c-9 0 -17 -4 -22 -11s-12 -19 -20 -34l-64 -182h-69l77 210v4c0 10 -5 12 -12 16c-25 0 -52 -47 -66 -73c-5 -9 -12 -23 -21 -42h-22c19 39 40 76 64 107 c21 27 47 40 79 40c21 0 31 -19 34 -41c19 17 34 27 45 32c11 6 24 9 39 9c21 0 32 -19 35 -41c22 17 49 41 85 41z" />
      </g>
      <g id="E4A5-x9irzmu">
         <path stroke="#000000" transform="scale(1,-1)" d="M8 0h330c8 0 8 -4 8 -12v-12c0 -8 0 -12 -8 -12h-330c-8 0 -8 4 -8 12v12c0 8 0 12 8 12z" />
      </g>
      <g id="E241-x9irzmu">
         <path stroke="#000000" transform="scale(1,-1)" d="M179 646c-4 8 -17 30 -18 33l-4 10c0 3 2 5 5 5s7 -2 13 -7c23 -33 46 -81 66 -132c22 -57 35 -125 35 -163c0 -104 -60 -183 -122 -241c-63 -59 -57 -53 -61 -56c-38 -34 -63 -95 -71 -95h-22v190c40 7 69 11 87 16c88 27 168 95 168 200c0 30 -12 89 -30 138 c-17 47 -31 73 -46 102z" />
      </g>
      <g id="E4A1-x9irzmu">
         <path stroke="#000000" transform="scale(1,-1)" d="M0 -236v33l252 86l-252 84v33l347 -117z" />
      </g>
      <g id="E4A4-x9irzmu">
         <path stroke="#000000" transform="scale(1,-1)" d="M8 36h330c8 0 8 -4 8 -12v-12c0 -8 0 -12 -8 -12h-330c-8 0 -8 4 -8 12v12c0 8 0 12 8 12z" />
      </g>
   </defs>
   <style type="text/css">#x9irzmu g.ending, #x9irzmu g.fing, #x9irzmu g.reh, #x9irzmu g.tempo {font-weight:bold;}#x9irzmu g.dir, #x9irzmu g.dynam, #x9irzmu g.mNum {font-style:italic;}#x9irzmu g.label {font-weight:normal;}#x9irzmu ellipse, #x9irzmu path, #x9irzmu polygon, #x9irzmu polyline, #x9irzmu rect {stroke:#000000}</style>
   <svg class="definition-scale" color="black" font-family="Times, serif" viewBox="0 0 8000 10520">
      <g class="page-margin" transform="translate(300, 300)">
         <g id="hucs3gi" class="mdiv pageMilestone" />
         <g id="i1dn5yi0" class="score pageMilestone" />
         <g id="l1q50k5k" class="system">
            <path stroke="#000000" d="M1523 270 L1523 2483" stroke-width="27" />
            <g id="dthdm1y" class="grpSym">
               <path stroke="#000000" d="M1438,2465 C1078,1925 1528,1557 1258,1377 C1591,1557 1141,1925 1438,2465" stroke-width="18" stroke-linecap="round" stroke-linejoin="round" />
               <path stroke="#000000" d="M1438,288 C1141,828 1591,1197 1258,1377 C1528,1197 1078,828 1438,288" stroke-width="18" stroke-linecap="round" stroke-linejoin="round" />
            </g>
            <g id="ekumvot" class="label">
               <text x="1105" y="1467" text-anchor="end" font-size="0px">
                  <tspan id="f1wqe2yf" class="text">
                     <tspan font-size="405px">Piano</tspan>
                  </tspan>
               </text>
            </g>
            <g id="h1iba1b6" class="label">
               <text x="1105" y="720" text-anchor="end" font-size="0px">
                  <tspan id="i1d6ep4o" class="text">
                     <tspan font-size="405px">RH</tspan>
                  </tspan>
               </text>
            </g>
            <g id="t117yyg0" class="label">
               <text x="1105" y="2213" text-anchor="end" font-size="0px">
                  <tspan id="u1uukefj" class="text">
                     <tspan font-size="405px">LH</tspan>
                  </tspan>
               </text>
            </g>
            <g id="k1cdx95h" class="section systemMilestone" />
            <g id="b1p6r8rt" class="section systemMilestone" />
            <g id="domw4x6" class="measure">
               <g id="mlaahz3" class="staff">
                  <path stroke="#000000" d="M1510 270 L7500 270" stroke-width="13" />
                  <path stroke="#000000" d="M1510 450 L7500 450" stroke-width="13" />
                  <path stroke="#000000" d="M1510 630 L7500 630" stroke-width="13" />
                  <path stroke="#000000" d="M1510 810 L7500 810" stroke-width="13" />
                  <path stroke="#000000" d="M1510 990 L7500 990" stroke-width="13" />
                  <g id="j1d1w32k" class="clef">
                     <use xlink:href="#E050-x9irzmu" transform="translate(1627, 810) scale(0.72, 0.72)" />
                  </g>
                  <g id="k12wjc5w" class="keySig" />
                  <g id="l2aqiqa" class="meterSig">
                     <use xlink:href="#E084-x9irzmu" transform="translate(2294, 450) scale(0.72, 0.72)" />
                     <use xlink:href="#E084-x9irzmu" transform="translate(2294, 810) scale(0.72, 0.72)" />
                  </g>
                  <g id="p1pxmxk5" class="layer">
                     <g id="ev-1" class="note">
                        <g class="notehead">
                           <use xlink:href="#E0A4-x9irzmu" transform="translate(2843, 810) scale(0.72, 0.72)" />
                        </g>
                        <g id="x16pyjyi" class="stem">
                           <path stroke="#000000" d="M3060 782 L3060 180" stroke-width="18" />
                        </g>
                     </g>
                     <g id="ev-2" class="note">
                        <g class="notehead">
                           <use xlink:href="#E0A4-x9irzmu" transform="translate(3964, 810) scale(0.72, 0.72)" />
                        </g>
                        <g id="y1em3cjy" class="stem">
                           <path stroke="#000000" d="M4181 782 L4181 180" stroke-width="18" />
                        </g>
                     </g>
                     <g id="ev-3" class="note">
                        <g class="notehead">
                           <use xlink:href="#E0A4-x9irzmu" transform="translate(5085, 810) scale(0.72, 0.72)" />
                        </g>
                        <g id="apevu4c" class="dots">
                           <ellipse stroke="#000000" cx="5401" cy="720" rx="36" ry="36" />
                        </g>
                        <g id="z1n9548i" class="stem">
                           <path stroke="#000000" d="M5302 782 L5302 180" stroke-width="18" />
                        </g>
                     </g>
                     <g id="ev-4" class="note">
                        <g class="notehead">
                           <use xlink:href="#E0A4-x9irzmu" transform="translate(6514, 810) scale(0.72, 0.72)" />
                        </g>
                        <g id="bubevje" class="stem">
                           <path stroke="#000000" d="M6731 782 L6731 180" stroke-width="18" />
                           <g id="c17lkauk" class="flag">
                              <use xlink:href="#E242-x9irzmu" transform="translate(6722, 180) scale(0.72, 0.72)" />
                           </g>
                        </g>
                     </g>
                     <g id="ev-5" class="note">
                        <g class="notehead">
                           <use xlink:href="#E0A4-x9irzmu" transform="translate(7001, 810) scale(0.72, 0.72)" />
                        </g>
                        <g id="d1gkohwt" class="stem">
                           <path stroke="#000000" d="M7218 782 L7218 180" stroke-width="18" />
                           <g id="e1h9apkb" class="flag">
                              <use xlink:href="#E242-x9irzmu" transform="translate(7209, 180) scale(0.72, 0.72)" />
                           </g>
                        </g>
                     </g>
                  </g>
               </g>
               <g id="d6rvz21" class="staff">
                  <path stroke="#000000" d="M1510 1763 L7500 1763" stroke-width="13" />
                  <path stroke="#000000" d="M1510 1943 L7500 1943" stroke-width="13" />
                  <path stroke="#000000" d="M1510 2123 L7500 2123" stroke-width="13" />
                  <path stroke="#000000" d="M1510 2303 L7500 2303" stroke-width="13" />
                  <path stroke="#000000" d="M1510 2483 L7500 2483" stroke-width="13" />
                  <g id="mkchu54" class="clef">
                     <use xlink:href="#E062-x9irzmu" transform="translate(1627, 1943) scale(0.72, 0.72)" />
                  </g>
                  <g id="n19niusm" class="keySig" />
                  <g id="oeft875" class="meterSig">
                     <use xlink:href="#E084-x9irzmu" transform="translate(2294, 1943) scale(0.72, 0.72)" />
                     <use xlink:href="#E084-x9irzmu" transform="translate(2294, 2303) scale(0.72, 0.72)" />
                  </g>
                  <g class="ledgerLines above">
                     <path stroke="#000000" d="M5037 1583 L5359 1583" stroke-width="22" />
                  </g>
                  <g id="egqyi6p" class="layer">
                     <g id="ev-25" class="note">
                        <g class="notehead">
                           <use xlink:href="#E0A4-x9irzmu" transform="translate(2843, 2123) scale(0.72, 0.72)" />
                        </g>
                        <g id="f1bcbwc9" class="stem">
                           <path stroke="#000000" d="M2852 2151 L2852 2723" stroke-width="18" />
                        </g>
                     </g>
                     <g id="ev-26" class="note">
                        <g class="notehead">
                           <use xlink:href="#E0A4-x9irzmu" transform="translate(3964, 1853) scale(0.72, 0.72)" />
                        </g>
                        <g id="gqgirxx" class="stem">
                           <path stroke="#000000" d="M3973 1881 L3973 2483" stroke-width="18" />
                        </g>
                     </g>
                     <g id="ev-27" class="note">
                        <g class="notehead">
                           <use xlink:href="#E0A3-x9irzmu" transform="translate(5085, 1493) scale(0.72, 0.72)" />
                        </g>
                        <g id="h1vhzigu" class="stem">
                           <path stroke="#000000" d="M5094 1518 L5094 2123" stroke-width="18" />
                        </g>
                     </g>
                  </g>
               </g>
               <g id="n1qxnof6" class="dynam">
                  <use xlink:href="#E52D-x9irzmu" transform="translate(2843, 1353) scale(0.72, 0.72)" />
               </g>
               <g id="sjq1rnx" class="slur">
                  <path fill="none" stroke="#000000" d="M4077,1012 C5188,1371 6296,1402 7427,1100 C6303,1461 5177,1430 4077,1012" stroke-width="9" stroke-linecap="round" stroke-linejoin="round" />
               </g>
               <g id="l16kj1p6" class="barLine">
                  <path stroke="#000000" d="M7487 270 L7487 990" stroke-width="27" />
                  <path stroke="#000000" d="M7487 1763 L7487 2483" stroke-width="27" />
                  <path stroke="#000000" d="M7487 990 L7487 1763" stroke-width="27" />
               </g>
            </g>
         </g>
         <g id="ouqqd5" class="system">
            <path stroke="#000000" d="M13 4177 L13 6157" stroke-width="27" />
            <g id="t1qgnzkr" class="grpSym">
               <path stroke="#000000" d="M-72,6139 C-432,5599 18,5347 -252,5167 C81,5347 -369,5599 -72,6139" stroke-width="18" stroke-linecap="round" stroke-linejoin="round" />
               <path stroke="#000000" d="M-72,4195 C-369,4735 81,4987 -252,5167 C18,4987 -432,4735 -72,4195" stroke-width="18" stroke-linecap="round" stroke-linejoin="round" />
            </g>
            <g id="wcg6vn5" class="measure">
               <g id="qb4a60t" class="mNum autogenerated">
                  <text y="3934" text-anchor="middle" font-size="0px">
                     <tspan id="r1wi4oi" class="text">
                        <tspan font-size="324px">2</tspan>
                     </tspan>
                  </text>
               </g>
               <g id="f1qxs3f9" class="staff">
                  <path stroke="#000000" d="M0 4177 L4209 4177" stroke-width="13" />
                  <path stroke="#000000" d="M0 4357 L4209 4357" stroke-width="13" />
                  <path stroke="#000000" d="M0 4537 L4209 4537" stroke-width="13" />
                  <path stroke="#000000" d="M0 4717 L4209 4717" stroke-width="13" />
                  <path stroke="#000000" d="M0 4897 L4209 4897" stroke-width="13" />
                  <g id="z1vbbwvr" class="clef">
                     <use xlink:href="#E050-x9irzmu" transform="translate(117, 4717) scale(0.72, 0.72)" />
                  </g>
                  <g id="a1onub82" class="keySig" />
                  <g id="g16g0666" class="layer">
                     <g id="ev-6" class="note">
                        <g class="notehead">
                           <use xlink:href="#E0A4-x9irzmu" transform="translate(879, 4717) scale(0.72, 0.72)" />
                        </g>
                        <g id="iodkywf" class="stem">
                           <path stroke="#000000" d="M1096 4689 L1096 4087" stroke-width="18" />
                        </g>
                        <g id="ir9bfjc" class="artic">
                           <use xlink:href="#E4A5-x9irzmu" transform="translate(868, 4975) scale(0.72, 0.72)" />
                        </g>
                     </g>
                     <g id="j1ynkt29" class="beam">
                        <polygon stroke="#000000" points="1719,3952 2268,3997 2268,4087 1719,4042" />
                        <polygon stroke="#000000" points="2042,4115 2268,4132 2268,4222 2042,4205" />
                        <g id="ev-7" class="note">
                           <g class="notehead">
                              <use xlink:href="#E0A4-x9irzmu" transform="translate(1511, 4537) scale(0.72, 0.72)" />
                           </g>
                           <g id="kespydq" class="dots">
                              <ellipse stroke="#000000" cx="1827" cy="4447" rx="36" ry="36" />
                           </g>
                           <g id="j40f5zt" class="stem">
                              <path stroke="#000000" d="M1728 4509 L1728 3970" stroke-width="18" />
                           </g>
                        </g>
                        <g id="ev-8" class="note">
                           <g class="notehead">
                              <use xlink:href="#E0A4-x9irzmu" transform="translate(2042, 4627) scale(0.72, 0.72)" />
                           </g>
                           <g id="l1sk7esj" class="stem">
                              <path stroke="#000000" d="M2259 4599 L2259 4015" stroke-width="18" />
                           </g>
                        </g>
                     </g>
                     <g id="m1y3rdpg" class="beam">
                        <polygon stroke="#000000" points="2341,4897 3071,4897 3071,4807 2341,4807" />
                        <polygon stroke="#000000" points="2341,4762 2567,4762 2567,4672 2341,4672" />
                        <polygon stroke="#000000" points="2845,4762 3071,4762 3071,4672 2845,4672" />
                        <g id="ev-9" class="note">
                           <g class="notehead">
                              <use xlink:href="#E0A4-x9irzmu" transform="translate(2341, 4267) scale(0.72, 0.72)" />
                           </g>
                           <g id="mk5dq1g" class="stem">
                              <path stroke="#000000" d="M2350 4295 L2350 4879" stroke-width="18" />
                           </g>
                        </g>
                        <g id="ev-10" class="note">
                           <g class="notehead">
                              <use xlink:href="#E0A4-x9irzmu" transform="translate(2640, 4267) scale(0.72, 0.72)" />
                           </g>
                           <g id="n1w7guoa" class="stem">
                              <path stroke="#000000" d="M2649 4295 L2649 4879" stroke-width="18" />
                           </g>
                        </g>
                        <g id="ev-11" class="note">
                           <g class="notehead">
                              <use xlink:href="#E0A4-x9irzmu" transform="translate(3053, 4267) scale(0.72, 0.72)" />
                           </g>
                           <g id="o1dold8x" class="stem">
                              <path stroke="#000000" d="M3062 4295 L3062 4879" stroke-width="18" />
                           </g>
                        </g>
                     </g>
                     <g id="q1nzkp60" class="beam">
                        <polygon stroke="#000000" points="3352,4897 3901,4897 3901,4807 3352,4807" />
                        <polygon stroke="#000000" points="3675,4762 3901,4762 3901,4672 3675,4672" />
                        <g id="ev-12" class="note">
                           <g class="notehead">
                              <use xlink:href="#E0A4-x9irzmu" transform="translate(3352, 4267) scale(0.72, 0.72)" />
                           </g>
                           <g id="q1waphxr" class="dots">
                              <ellipse stroke="#000000" cx="3668" cy="4267" rx="36" ry="36" />
                           </g>
                           <g id="p4rourq" class="stem">
                              <path stroke="#000000" d="M3361 4295 L3361 4879" stroke-width="18" />
                           </g>
                        </g>
                        <g id="ev-13" class="note">
                           <g class="notehead">
                              <use xlink:href="#E0A4-x9irzmu" transform="translate(3883, 4267) scale(0.72, 0.72)" />
                           </g>
                           <g id="r1at59w3" class="stem">
                              <path stroke="#000000" d="M3892 4295 L3892 4879" stroke-width="18" />
                           </g>
                        </g>
                     </g>
                  </g>
               </g>
               <g id="r9ikazm" class="staff">
                  <path stroke="#000000" d="M0 5437 L4209 5437" stroke-width="13" />
                  <path stroke="#000000" d="M0 5617 L4209 5617" stroke-width="13" />
                  <path stroke="#000000" d="M0 5797 L4209 5797" stroke-width="13" />
                  <path stroke="#000000" d="M0 5977 L4209 5977" stroke-width="13" />
                  <path stroke="#000000" d="M0 6157 L4209 6157" stroke-width="13" />
                  <g id="b7dh85g" class="clef">
                     <use xlink:href="#E062-x9irzmu" transform="translate(117, 5617) scale(0.72, 0.72)" />
                  </g>
                  <g id="c742bui" class="keySig" />
                  <g class="ledgerLines above">
                     <path stroke="#000000" d="M2293 5257 L2615 5257" stroke-width="22" />
                     <path stroke="#000000" d="M2293 5077 L2615 5077" stroke-width="22" />
                  </g>
                  <g id="sb6f9c8" class="layer">
                     <g id="ev-28" class="note">
                        <g class="notehead">
                           <use xlink:href="#E0A4-x9irzmu" transform="translate(879, 5887) scale(0.72, 0.72)" />
                        </g>
                        <g id="s1djicdp" class="stem">
                           <path stroke="#000000" d="M1096 5859 L1096 5257" stroke-width="18" />
                        </g>
                     </g>
                     <g id="ev-29" class="note">
                        <g class="notehead">
                           <use xlink:href="#E0A4-x9irzmu" transform="translate(1511, 5707) scale(0.72, 0.72)" />
                        </g>
                        <g id="t1y2sra0" class="stem">
                           <path stroke="#000000" d="M1520 5735 L1520 6337" stroke-width="18" />
                        </g>
                     </g>
                     <g id="ev-30" class="note">
                        <g class="notehead">
                           <use xlink:href="#E0A3-x9irzmu" transform="translate(2341, 5077) scale(0.72, 0.72)" />
                        </g>
                        <g id="ullldi" class="stem">
                           <path stroke="#000000" d="M2350 5102 L2350 5797" stroke-width="18" />
                        </g>
                     </g>
                  </g>
               </g>
               <g id="sxj52ql" class="slur">
                  <path fill="none" stroke="#000000" d="M3465,4064 C4242,3728 5194,3761 5949,4152 C5179,3820 4253,3787 3465,4064" stroke-width="9" stroke-linecap="round" stroke-linejoin="round" />
               </g>
               <g id="e1rt77g2" class="barLine">
                  <path stroke="#000000" d="M4196 4177 L4196 4897" stroke-width="27" />
                  <path stroke="#000000" d="M4196 5437 L4196 6157" stroke-width="27" />
                  <path stroke="#000000" d="M4196 4897 L4196 5437" stroke-width="27" />
               </g>
            </g>
            <g id="usmsy6c" class="measure">
               <g id="d5ialiq" class="staff">
                  <path stroke="#000000" d="M4209 4177 L7501 4177" stroke-width="13" />
                  <path stroke="#000000" d="M4209 4357 L7501 4357" stroke-width="13" />
                  <path stroke="#000000" d="M4209 4537 L7501 4537" stroke-width="13" />
                  <path stroke="#000000" d="M4209 4717 L7501 4717" stroke-width="13" />
                  <path stroke="#000000" d="M4209 4897 L7501 4897" stroke-width="13" />
                  <g id="e6zeu51" class="layer">
                     <g id="ev-14" class="note">
                        <g class="notehead">
                           <use xlink:href="#E0A4-x9irzmu" transform="translate(4380, 4447) scale(0.72, 0.72)" />
                        </g>
                        <g id="w1dgat4w" class="dots">
                           <ellipse stroke="#000000" cx="4696" cy="4447" rx="36" ry="36" />
                        </g>
                        <g id="vh04eon" class="stem">
                           <path stroke="#000000" d="M4389 4475 L4389 5077" stroke-width="18" />
                        </g>
                     </g>
                     <g id="ev-15" class="note">
                        <g class="notehead">
                           <use xlink:href="#E0A4-x9irzmu" transform="translate(5425, 4447) scale(0.72, 0.72)" />
                        </g>
                        <g id="x1e1y2jk" class="stem">
                           <path stroke="#000000" d="M5434 4475 L5434 5077" stroke-width="18" />
                           <g id="yqx1dwh" class="flag">
                              <use xlink:href="#E241-x9irzmu" transform="translate(5425, 5077) scale(0.72, 0.72)" />
                           </g>
                        </g>
                     </g>
                     <g id="h1gydbir" class="beam">
                        <polygon stroke="#000000" points="5838,5032 6268,4987 6268,4897 5838,4942" />
                        <g id="ev-16" class="note">
                           <g class="notehead">
                              <use xlink:href="#E0A4-x9irzmu" transform="translate(5838, 4357) scale(0.72, 0.72)" />
                           </g>
                           <g id="zbtimo3" class="stem">
                              <path stroke="#000000" d="M5847 4385 L5847 5014" stroke-width="18" />
                           </g>
                        </g>
                        <g id="ev-17" class="note">
                           <g class="notehead">
                              <use xlink:href="#E0A4-x9irzmu" transform="translate(6250, 4267) scale(0.72, 0.72)" />
                           </g>
                           <g id="a17qadee" class="stem">
                              <path stroke="#000000" d="M6259 4295 L6259 4969" stroke-width="18" />
                           </g>
                        </g>
                     </g>
                     <g id="kh0125d" class="beam">
                        <polygon stroke="#000000" points="6663,4762 7094,4762 7094,4672 6663,4672" />
                        <g id="ev-18" class="note">
                           <g class="notehead">
                              <use xlink:href="#E0A4-x9irzmu" transform="translate(6663, 4177) scale(0.72, 0.72)" />
                           </g>
                           <g id="bsg78di" class="stem">
                              <path stroke="#000000" d="M6672 4205 L6672 4744" stroke-width="18" />
                           </g>
                        </g>
                        <g id="ev-19" class="note">
                           <g class="notehead">
                              <use xlink:href="#E0A4-x9irzmu" transform="translate(7076, 4177) scale(0.72, 0.72)" />
                           </g>
                           <g id="c5n8yvd" class="stem">
                              <path stroke="#000000" d="M7085 4205 L7085 4744" stroke-width="18" />
                           </g>
                        </g>
                     </g>
                  </g>
               </g>
               <g id="fxj6vgl" class="staff">
                  <path stroke="#000000" d="M4209 5437 L7501 5437" stroke-width="13" />
                  <path stroke="#000000" d="M4209 5617 L7501 5617" stroke-width="13" />
                  <path stroke="#000000" d="M4209 5797 L7501 5797" stroke-width="13" />
                  <path stroke="#000000" d="M4209 5977 L7501 5977" stroke-width="13" />
                  <path stroke="#000000" d="M4209 6157 L7501 6157" stroke-width="13" />
                  <g class="ledgerLines above">
                     <path stroke="#000000" d="M5790 5257 L6112 5257" stroke-width="22" />
                  </g>
                  <g id="g1eh9yye" class="layer">
                     <g id="ev-31" class="note">
                        <g class="notehead">
                           <use xlink:href="#E0A4-x9irzmu" transform="translate(4380, 5887) scale(0.72, 0.72)" />
                        </g>
                        <g id="d1frqeo3" class="stem">
                           <path stroke="#000000" d="M4597 5859 L4597 5257" stroke-width="18" />
                        </g>
                        <g id="ixpyiay" class="artic">
                           <use xlink:href="#E4A1-x9irzmu" transform="translate(4369, 6224) scale(0.72, 0.72)" />
                        </g>
                     </g>
                     <g id="ev-32" class="note">
                        <g class="notehead">
                           <use xlink:href="#E0A4-x9irzmu" transform="translate(5012, 5617) scale(0.72, 0.72)" />
                        </g>
                        <g id="e30wy07" class="stem">
                           <path stroke="#000000" d="M5021 5645 L5021 6247" stroke-width="18" />
                        </g>
                     </g>
                     <g id="ev-33" class="note">
                        <g class="notehead">
                           <use xlink:href="#E0A3-x9irzmu" transform="translate(5838, 5257) scale(0.72, 0.72)" />
                        </g>
                        <g id="fpkh7dh" class="stem">
                           <path stroke="#000000" d="M5847 5282 L5847 5887" stroke-width="18" />
                        </g>
                     </g>
                  </g>
               </g>
               <g id="c1itc5kl" class="barLine">
                  <path stroke="#000000" d="M7488 4177 L7488 4897" stroke-width="27" />
                  <path stroke="#000000" d="M7488 5437 L7488 6157" stroke-width="27" />
                  <path stroke="#000000" d="M7488 4897 L7488 5437" stroke-width="27" />
               </g>
            </g>
            <g class="slur id-sjq1rnx spanning">
               <path stroke="#000000" d="M708,5292 C801,5307 946,5203 990,5112 C1005,5239 806,5375 708,5292" stroke-width="9" stroke-linecap="round" stroke-linejoin="round" />
            </g>
         </g>
         <g id="r172nb5m" class="system">
            <path stroke="#000000" d="M13 7777 L13 9757" stroke-width="27" />
            <g id="hkvm8ew" class="grpSym">
               <path stroke="#000000" d="M-72,9739 C-432,9199 18,8947 -252,8767 C81,8947 -369,9199 -72,9739" stroke-width="18" stroke-linecap="round" stroke-linejoin="round" />
               <path stroke="#000000" d="M-72,7795 C-369,8335 81,8587 -252,8767 C18,8587 -432,8335 -72,7795" stroke-width="18" stroke-linecap="round" stroke-linejoin="round" />
            </g>
            <g id="n2fp7ui" class="measure">
               <g id="u63k602" class="mNum autogenerated">
                  <text y="7534" text-anchor="middle" font-size="0px">
                     <tspan id="v16yqvq" class="text">
                        <tspan font-size="324px">4</tspan>
                     </tspan>
                  </text>
               </g>
               <g id="wejgh6w" class="staff">
                  <path stroke="#000000" d="M0 7777 L3939 7777" stroke-width="13" />
                  <path stroke="#000000" d="M0 7957 L3939 7957" stroke-width="13" />
                  <path stroke="#000000" d="M0 8137 L3939 8137" stroke-width="13" />
                  <path stroke="#000000" d="M0 8317 L3939 8317" stroke-width="13" />
                  <path stroke="#000000" d="M0 8497 L3939 8497" stroke-width="13" />
                  <g id="n7pe4re" class="clef">
                     <use xlink:href="#E050-x9irzmu" transform="translate(117, 8317) scale(0.72, 0.72)" />
                  </g>
                  <g id="o13cf2vx" class="keySig" />
                  <g id="x174ert1" class="layer">
                     <g id="ev-20" class="note">
                        <g class="notehead">
                           <use xlink:href="#E0A4-x9irzmu" transform="translate(888, 8047) scale(0.72, 0.72)" />
                        </g>
                        <g id="gvmsihy" class="stem">
                           <path stroke="#000000" d="M897 8075 L897 8677" stroke-width="18" />
                        </g>
                        <g id="ztaximc" class="artic">
                           <use xlink:href="#E4A4-x9irzmu" transform="translate(877, 7879) scale(0.72, 0.72)" />
                        </g>
                     </g>
                     <g id="aublgu2" class="beam">
                        <polygon stroke="#000000" points="1556,8677 2010,8722 2010,8632 1556,8587" />
                        <g id="ev-21" class="note">
                           <g class="notehead">
                              <use xlink:href="#E0A4-x9irzmu" transform="translate(1556, 7957) scale(0.72, 0.72)" />
                           </g>
                           <g id="h1sc3kgq" class="stem">
                              <path stroke="#000000" d="M1565 7985 L1565 8659" stroke-width="18" />
                           </g>
                        </g>
                        <g id="ev-22" class="note">
                           <g class="notehead">
                              <use xlink:href="#E0A4-x9irzmu" transform="translate(1992, 8047) scale(0.72, 0.72)" />
                           </g>
                           <g id="i1woqwkf" class="stem">
                              <path stroke="#000000" d="M2001 8075 L2001 8704" stroke-width="18" />
                           </g>
                        </g>
                     </g>
                     <g id="ev-23" class="note">
                        <g class="notehead">
                           <use xlink:href="#E0A4-x9irzmu" transform="translate(2428, 8047) scale(0.72, 0.72)" />
                        </g>
                        <g id="jpwsuqg" class="stem">
                           <path stroke="#000000" d="M2437 8075 L2437 8677" stroke-width="18" />
                        </g>
                        <g id="f1j736h4" class="artic">
                           <use xlink:href="#E4A4-x9irzmu" transform="translate(2417, 7879) scale(0.72, 0.72)" />
                        </g>
                     </g>
                     <g id="ev-24" class="note">
                        <g class="notehead">
                           <use xlink:href="#E0A4-x9irzmu" transform="translate(3096, 8047) scale(0.72, 0.72)" />
                        </g>
                        <g id="kp1ywap" class="stem">
                           <path stroke="#000000" d="M3105 8075 L3105 8677" stroke-width="18" />
                        </g>
                     </g>
                  </g>
               </g>
               <g id="urop5lj" class="staff">
                  <path stroke="#000000" d="M0 9037 L3939 9037" stroke-width="13" />
                  <path stroke="#000000" d="M0 9217 L3939 9217" stroke-width="13" />
                  <path stroke="#000000" d="M0 9397 L3939 9397" stroke-width="13" />
                  <path stroke="#000000" d="M0 9577 L3939 9577" stroke-width="13" />
                  <path stroke="#000000" d="M0 9757 L3939 9757" stroke-width="13" />
                  <g id="p1lc4glp" class="clef">
                     <use xlink:href="#E062-x9irzmu" transform="translate(117, 9217) scale(0.72, 0.72)" />
                  </g>
                  <g id="qg8e5p2" class="keySig" />
                  <g class="ledgerLines above">
                     <path stroke="#000000" d="M2380 8857 L2702 8857" stroke-width="22" />
                     <path stroke="#000000" d="M3048 8857 L3370 8857" stroke-width="22" />
                  </g>
                  <g id="vb2jwvv" class="layer">
                     <g id="ev-34" class="note">
                        <g class="notehead">
                           <use xlink:href="#E0A4-x9irzmu" transform="translate(888, 9487) scale(0.72, 0.72)" />
                        </g>
                        <g id="l1jbjc31" class="stem">
                           <path stroke="#000000" d="M1105 9459 L1105 8857" stroke-width="18" />
                        </g>
                     </g>
                     <g id="ev-35" class="note">
                        <g class="notehead">
                           <use xlink:href="#E0A4-x9irzmu" transform="translate(1556, 9307) scale(0.72, 0.72)" />
                        </g>
                        <g id="m6uaxgt" class="stem">
                           <path stroke="#000000" d="M1565 9335 L1565 9937" stroke-width="18" />
                        </g>
                     </g>
                     <g id="ev-36" class="note">
                        <g class="notehead">
                           <use xlink:href="#E0A4-x9irzmu" transform="translate(2428, 8857) scale(0.72, 0.72)" />
                        </g>
                        <g id="n1txobv9" class="stem">
                           <path stroke="#000000" d="M2437 8885 L2437 9487" stroke-width="18" />
                        </g>
                     </g>
                     <g id="ev-37" class="note">
                        <g class="notehead">
                           <use xlink:href="#E0A4-x9irzmu" transform="translate(3096, 8857) scale(0.72, 0.72)" />
                        </g>
                        <g id="okzmcl1" class="stem">
                           <path stroke="#000000" d="M3105 8885 L3105 9487" stroke-width="18" />
                        </g>
                     </g>
                  </g>
               </g>
               <g id="e1vwj74q" class="tie">
                  <path stroke="#000000" d="M2699,8002 C2774,7849 2975,7849 3051,8002 C2950,7896 2799,7896 2699,8002" stroke-width="9" stroke-linecap="round" stroke-linejoin="round" />
               </g>
               <g id="zvlhxit" class="tie">
                  <path stroke="#000000" d="M2699,8812 C2774,8659 2975,8659 3051,8812 C2950,8706 2799,8706 2699,8812" stroke-width="9" stroke-linecap="round" stroke-linejoin="round" />
               </g>
               <g id="v1eyxfyj" class="barLine">
                  <path stroke="#000000" d="M3764 7777 L3764 8497" stroke-width="27" />
                  <path stroke="#000000" d="M3894 7777 L3894 8497" stroke-width="90" />
                  <path stroke="#000000" d="M3764 9037 L3764 9757" stroke-width="27" />
                  <path stroke="#000000" d="M3894 9037 L3894 9757" stroke-width="90" />
                  <path stroke="#000000" d="M3764 8497 L3764 9037" stroke-width="27" />
                  <path stroke="#000000" d="M3894 8497 L3894 9037" stroke-width="90" />
               </g>
            </g>
            <g id="klttovq" class="systemMilestoneEnd b1p6r8rt" />
            <g id="l1h8vg5o" class="systemMilestoneEnd k1cdx95h" />
         </g>
         <g id="m1utmhgp" class="pageMilestoneEnd i1dn5yi0" />
         <g id="n1y445h2" class="pageMilestoneEnd hucs3gi" />
      </g>
   </svg>
</svg>
